<!-- Generated by IcoMoon.io -->
<svg version="1.1" xmlns="http://www.w3.org/2000/svg" width="1596" height="512" viewBox="0 0 1596 512">
<title></title>
<g id="icomoon-ignore">
</g>
<path fill="#000" d="M927.795 256.002c0 42.789-34.688 77.476-77.476 77.476s-77.476-34.688-77.476-77.476c0-42.789 34.688-77.476 77.476-77.476s77.476 34.688 77.476 77.476z"></path>
<path fill="#000" d="M144.828 1.377l-37.14 55.59-36.645-55.59h-71.044l78.521 113.922v66.056h58.829v-66.056l78.523-113.921z"></path>
<path fill="#000" d="M193.685 92.362c0 19.859 3.991 36.667 11.968 50.416 7.978 13.756 19.713 24.14 35.21 31.16 15.497 7.023 34.045 10.532 55.651 10.532 21.604 0 40.197-3.492 55.774-10.472 15.582-6.979 27.483-17.407 35.71-31.284 8.226-13.875 12.337-30.66 12.337-50.354s-4.113-36.459-12.337-50.292c-8.228-13.835-20.152-24.303-35.772-31.41-15.624-7.106-34.192-10.659-55.714-10.659-16.203 0-30.709 2.015-43.499 6.045-12.796 4.031-23.6 9.951-32.408 17.764-8.804 7.812-15.498 17.43-20.066 28.853-4.573 11.429-6.857 24.664-6.857 39.699zM296.14 49.735c16.284 0 26.964 4.3 32.033 12.9 5.067 8.6 7.852 18.677 8.35 30.225-0.498 8.144-1.478 15.104-2.93 20.878-1.455 5.778-5.11 10.907-10.969 15.393-5.858 4.488-14.688 6.732-26.487 6.732-15.291 0-25.531-4.28-30.724-12.837-5.196-8.558-7.791-18.611-7.791-30.164 0-28.749 12.837-43.126 38.514-43.126z"></path>
<path fill="#000" d="M528.7 1.377v106.441c0.333 11.803-2.448 20.196-8.348 25.179s-13.252 7.561-22.061 7.73c-10.966-0.331-19.029-2.867-24.18-7.603s-7.478-13.171-6.981-25.305v-106.441h-58.581v105.697c0 15.123 2.305 27.381 6.918 36.769 4.611 9.392 11.175 17.076 19.692 23.056 8.516 5.986 18.486 10.368 29.913 13.149 11.425 2.78 22.662 4.3 33.716 4.548 13.292-0.332 25.363-2.165 36.207-5.484 10.841-3.322 19.856-7.978 27.047-13.96 7.186-5.98 13.125-13.44 17.822-22.373 4.691-8.932 7.169-20.878 7.417-35.832v-105.57l-58.582 0.002z"></path>
<path fill="#000" d="M130.515 401.947c-5.092-4.365-11.337-7.832-18.723-10.406-7.385-2.574-15.921-3.865-25.603-3.865h-71.524v121.221h69.508c11.082 0.219 20.297-0.896 27.66-3.361 7.359-2.461 13.583-5.935 18.679-10.409 5.092-4.477 9.173-10.575 12.255-18.3 3.076-7.723 4.924-17.099 5.539-28.125 0-11.918-1.694-21.596-5.079-29.044-3.385-7.444-7.623-13.349-12.714-17.712zM98.614 466.877c-2.013 3.445-4.618 6.272-7.804 8.483-3.192 2.204-7.388 3.313-12.593 3.313h-23.089v-60.945h22.919c5.316 0 9.625 1.102 12.927 3.316 3.299 2.211 6.003 5.259 8.1 9.149 2.1 3.892 3.232 9.924 3.4 18.096-0.56 8.95-1.847 15.144-3.861 18.587z"></path>
<path fill="#000" d="M282.623 472.795h-34.589l-9.068-11.581c9.404-2.24 16.623-5.317 21.66-9.234s8.562-8.788 10.576-14.613c2.012-5.817 1.899-14.101-0.341-24.841-2.908-7.17-7.499-12.873-13.764-17.125-6.268-4.253-14.272-6.829-24.007-7.724h-78.909v121.221h43.82v-40.044l38.45 40.044h85.626v-121.221h-39.458v85.118zM233.85 438.42c-1.902 1.204-3.666 1.808-5.286 1.808h-30.556v-22.332h30.476c1.341 0 3.006 0.743 4.992 2.226 1.984 1.486 3.118 4.55 3.399 9.188-0.113 4.875-1.117 7.912-3.022 9.115z"></path>
<path fill="#000" d="M401.897 480.771l-27.533-93.096h-46.257l42.647 121.221h64.387l43.233-121.221h-48.604z"></path>
<path fill="#000" d="M483.59 508.898h103.684v-36.103h-64.228v-13.932h41.636v-21.155h-41.636v-13.936h64.228v-36.097h-103.683z"></path>
<path fill="#000" d="M104.602 194.089c-14.127 0-27.439 1.806-39.945 5.421s-23.579 9.101-33.216 16.453-17.18 16.581-22.621 27.672c-5.444 11.089-8.165 23.701-8.165 37.825 0 20.112 4.548 37.103 13.648 50.981s21.54 24.284 37.331 31.224c15.786 6.933 33.444 10.406 52.969 10.406h79.773v-53.596h-56.338c-11.468 0-20.111-0.288-25.924-0.875-5.818-0.579-11.468-1.615-16.953-3.113-5.484-1.495-10.137-4.529-13.959-9.101-3.823-4.569-5.942-12.173-6.359-22.812 0.579-10.964 2.701-18.609 6.359-22.928 3.653-4.319 7.852-7.355 12.588-9.105 4.737-1.743 10.134-2.988 16.201-3.74 6.067-0.745 15.415-1.121 28.045-1.121h56.338v-53.596l-79.772 0.001z"></path>
<path fill="#000" d="M253.179 194.089l-59.205 179.981h64.563l11.344-32.406h53.468l11.344 32.406h68.052l-60.2-179.981zM272.248 305.265l25.801-71.295 23.805 71.295z"></path>
<path fill="#000" d="M527.836 261.394l-53.596-67.308h-58.581v179.982h58.581v-67.305l53.596 67.305h58.577v-179.981h-58.577z"></path>
<path fill="#000" d="M850.318 89.263c73.216 0 135.411 47.197 157.82 112.826h92.469c-24.761-115.492-127.404-202.084-250.291-202.084s-225.532 86.593-250.291 202.084h92.468c22.413-65.628 84.604-112.826 157.824-112.826z"></path>
<path fill="#000" d="M850.318 422.738c-73.484 0-135.864-47.538-158.067-113.535h-92.38c24.489 115.851 127.309 202.797 250.447 202.797 123.141 0 225.959-86.947 250.447-202.797h-92.379c-22.203 65.998-84.585 113.535-158.068 113.535z"></path>
<path fill="#000" d="M1591.778 70.92c0 36.933-24.6 63.428-60.778 63.428-34.158 0-59.593-24.328-59.593-63.428 0-41.968 30.146-63.566 60.734-63.566 29.338 0 59.636 20.509 59.636 63.566zM1562.178 70.92c0-17.596-8.531-38.046-30.691-38.046-20.083 0-30.643 17.245-30.643 38.046 0 23.401 13.044 38.118 30.643 38.118 22.159 0 30.691-20.267 30.691-38.118z"></path>
<path fill="#000" d="M1460.567 122.831c-7.243 4.805-22.504 11.399-43.236 11.399-40.812 0-60.984-28.152-60.984-62.585 0-38.717 27.373-64.264 63.216-64.264 17.741 0 29.122 2.924 39.24 7.869l-10.386 23.887c-7.669-3.228-16.572-5.148-27.092-5.148-25.855 0-34.643 15.495-34.643 36.9 0 23.089 11.785 38.031 32.331 38.031 7.43 0 12.996-1.584 14.772-2.679v-21.472h-20.895l0.033-24.322h47.612l0.033 62.381z"></path>
<path fill="#000" d="M1321.149 132.228c-4.043-14.76-10.834-26.023-16.428-33.204-4.709-6.084-8.399-7.348-8.399-7.348-3.78 0.056-6.436 0.056-9.916-0.084v40.637h-28.506v-121.62c6.015-0.941 10.307-1.503 16.582-2.053 5.815-0.545 12.364-0.888 19.629-0.888 9.603 0 17.787 1.049 24.477 3.15 6.695 2.144 12.142 5.029 16.418 8.735 4.359 3.686 7.476 8.277 9.385 13.309 1.977 4.919 3.005 10.157 3.005 15.739 0 7.351-1.813 14.517-5.701 20.651-3.492 5.42-9.353 10.957-15.421 14.806v0.513c13.561 6.2 21.228 26.147 28.669 47.66l-33.796-0.001zM1318.826 49.279c0-5.108-1.853-9.245-5.549-12.044-3.676-2.908-8.74-4.308-14.899-4.41-0.695-0.035-3.327 0-4.912 0.075-1.581 0.028-5.748 0.395-7.057 0.63v35.048c1.884 0.243 5.857 0.421 9.044 0.421 6.804 0 13.176-1.864 17.161-5.014 4.063-3.228 6.216-8.442 6.216-14.709z"></path>
<path fill="#000" d="M1157.769 103.121v-93.727h83.692l0.027 26.14h-55.187v20.998h46.698l0.027 24.852h-46.724v13.112c0 8.257 4.827 11.764 11.151 11.764 12.827 0 46.276 0 46.276 0l0.033 25.964h-57.068c-21.403 0-28.926-9.861-28.926-29.108z"></path>
<path fill="#000" d="M1583.052 149.953c0 0.411-0.344 0.763-0.744 0.763-0.444 0-0.746-0.351-0.746-0.763 0-0.406 0.301-0.754 0.746-0.754 0.402 0 0.744 0.349 0.744 0.754z"></path>
<path fill="#000" d="M1589.757 168.972c-2.036 2.032-4.518 3.092-7.484 3.092-2.968 0-5.498-1.017-7.507-3.056-2.027-2.064-3.020-4.594-3.020-7.644 0-2.972 0.991-5.496 3.020-7.548 2.012-2.072 4.543-3.142 7.507-3.142s5.448 1.071 7.484 3.142c1.995 2.052 2.989 4.573 2.989 7.548 0.002 3.051-0.996 5.549-2.989 7.612zM1590.842 169.987c2.393-2.388 3.564-5.244 3.564-8.625 0-3.346-1.172-6.176-3.564-8.595-2.349-2.332-5.216-3.522-8.568-3.522-3.346 0-6.25 1.191-8.636 3.522-2.38 2.419-3.553 5.251-3.553 8.595 0 3.381 1.176 6.235 3.553 8.625 2.384 2.363 5.29 3.596 8.636 3.596 3.349 0 6.217-1.235 8.568-3.596zM1582.5 162.19l4.072 6.404h2.052l-4.292-6.404c2.411-0.411 3.636-1.742 3.636-4.028 0-2.664-1.575-3.972-4.691-3.972h-5.6v14.406h1.677v-6.404h3.145zM1579.356 155.68h3.519c2.263 0 3.437 0.786 3.437 2.397 0 1.133-0.437 1.886-1.378 2.273-0.568 0.233-1.572 0.377-2.978 0.377h-2.598v-5.045z"></path>
<path fill="#000" d="M1181.193 198.738h44.89c0.492 0 0.724-0.286 0.724-0.827v-2.465c0-14.028-0.088-22.299-0.228-24.9-0.234-3.74-1.916-6.006-5.035-6.692-1.128-0.22-2.657-0.341-4.61-0.341-1.324 0-1.987-0.349-1.987-1.068 0-0.685 0.821-1.047 2.438-1.047 2.361 0 5.575 0.060 9.655 0.173 4.078 0.1 6.509 0.156 7.272 0.156 0.804 0 3.070-0.059 6.772-0.156 3.724-0.111 6.42-0.173 8.052-0.173 1.658 0 2.456 0.363 2.456 1.047 0 0.724-0.678 1.068-2.091 1.068-0.957 0-2.063 0.124-3.38 0.341-2.693 0.493-4.124 2.698-4.383 6.692-0.152 2.601-0.236 10.907-0.236 24.9v20.692c0 13.311 0.211 21.68 0.595 25.124 0.461 3.849 1.997 5.942 4.603 6.362 2.244 0.319 4.252 0.435 5.977 0.435 1.274 0 1.892 0.351 1.892 0.957 0 0.788-0.786 1.172-2.357 1.172-2.9 0-6.492-0.048-10.834-0.151-4.291-0.115-6.784-0.151-7.524-0.151-0.672 0-2.883 0.033-6.58 0.151-3.665 0.103-6.397 0.151-8.104 0.151-1.641 0-2.457-0.383-2.457-1.172 0-0.548 0.869-0.907 2.573-1.057 1.175-0.151 2.38-0.286 3.546-0.337 1.765-0.417 2.931-2.582 3.376-6.486 0.396-3.069 0.605-11.395 0.605-25v-10.35c0-0.46-0.228-0.702-0.724-0.702h-44.89c-0.461 0-0.719 0.239-0.719 0.702v10.35c0 13.311 0.218 21.68 0.588 25.124 0.486 3.849 2.036 5.942 4.608 6.362 2.251 0.319 4.276 0.435 6.020 0.435 1.242 0 1.843 0.351 1.843 0.957 0 0.788-0.786 1.172-2.338 1.172-2.924 0-6.493-0.048-10.842-0.151-4.284-0.115-6.83-0.151-7.508-0.151-0.698 0-2.928 0.033-6.62 0.151-3.73 0.103-6.444 0.151-8.188 0.151-1.559 0-2.349-0.383-2.349-1.172 0-0.548 0.864-0.907 2.608-1.057 1.181-0.151 2.355-0.286 3.514-0.337 1.807-0.417 2.931-2.582 3.38-6.453 0.411-3.101 0.623-11.428 0.623-25.034v-20.692c0-13.995-0.107-22.299-0.273-24.9-0.224-3.74-1.909-5.971-5.027-6.692-1.091-0.22-2.629-0.341-4.592-0.341-1.332 0-2.004-0.349-2.004-1.068 0-0.685 0.811-1.047 2.453-1.047 2.368 0 5.595 0.060 9.64 0.173 4.101 0.1 6.508 0.156 7.315 0.156 0.773 0 3.037-0.059 6.748-0.156 3.74-0.111 6.42-0.173 8.064-0.173 1.66 0 2.469 0.363 2.469 1.047 0 0.724-0.732 1.068-2.131 1.068-0.936 0-2.072 0.124-3.391 0.341-2.668 0.493-4.143 2.698-4.353 6.692-0.176 2.601-0.258 10.875-0.258 24.9v2.465c-0.005 0.541 0.251 0.827 0.713 0.827z"></path>
<path fill="#000" d="M1270.103 215.494v-20.663c0-14.030-0.107-22.296-0.258-24.884-0.236-3.78-1.947-6.019-5.067-6.708-1.089-0.228-2.607-0.345-4.549-0.345-1.38 0-2.021-0.37-2.021-1.055 0-0.702 0.852-1.072 2.584-1.072 2.361 0 5.528 0.065 9.585 0.151 4.025 0.1 6.505 0.185 7.344 0.185 18.587 0 28.38-0.052 29.391-0.133 2.054-0.137 3.713-0.351 5.035-0.688 1.363-0.32 1.974-0.435 1.892-0.435 0.463 0 0.689 0.337 0.689 1.047 0 0.076-0.099 0.794-0.338 2.118-0.248 1.558-0.399 3.368-0.503 5.5-0.168 2.097-0.358 4.676-0.672 7.745-0.152 0.873-0.551 1.275-1.172 1.275-0.541 0-0.876-0.401-1.001-1.275-0.092-0.88-0.224-1.701-0.299-2.462-0.056-0.822-0.224-1.477-0.461-2.113-0.957-2.281-3.581-3.706-7.878-4.255-2.657-0.313-8.203-0.471-16.695-0.471-0.534 0-0.811 0.383-0.811 1.172v29.745c0 0.868 0.277 1.279 0.811 1.279 10.738 0 16.996-0.083 18.791-0.214 1.322-0.099 2.349-0.195 3.068-0.37 1.208-0.337 2.054-0.778 2.582-1.389 0.957-1.024 1.584-1.544 1.897-1.544 0.565 0 0.82 0.337 0.82 0.957 0 0.065-0.139 0.852-0.357 2.344-0.23 1.799-0.444 3.871-0.593 6.209-0.313 4.5-0.463 7.116-0.463 7.892 0 1.469-0.351 2.206-1.043 2.206-0.72 0-1.091-0.383-1.091-1.205 0-0.837-0.132-2.171-0.457-4.060-0.612-2.662-2.828-4.19-6.563-4.607-2.196-0.228-7.768-0.319-16.718-0.319-0.456 0-0.686 0.372-0.686 1.141v27.531c0.152 4.149 1.063 6.863 2.756 8.071 1.692 1.205 5.464 1.809 11.323 1.809 5.357 0 9.028-0.477 11.072-1.424 2.731-1.257 4.525-4.173 5.296-8.7 0.255-1.141 0.655-1.749 1.293-1.749 0.62 0 0.938 0.726 0.938 2.119 0 4.776-0.503 9.15-1.522 13.115-0.411 1.448-0.967 2.288-1.664 2.589-0.704 0.3-2.277 0.484-4.695 0.484-6.796 0-13.604-0.124-20.351-0.404-6.749-0.251-10.79-0.383-12.2-0.383-0.72 0-2.931 0.051-6.644 0.158-3.72 0.085-6.46 0.144-8.173 0.144-1.548 0-2.333-0.394-2.333-1.141 0-0.57 0.853-0.921 2.572-1.087 1.157-0.153 2.343-0.268 3.519-0.337 1.813-0.428 2.951-2.582 3.394-6.469 0.421-3.069 0.623-11.395 0.623-25.028z"></path>
<path fill="#000" d="M1348.886 250.627c-6.836 0-12.551-1.024-17.175-3.054-1.508-0.616-2.248-1.958-2.248-4.005 0-4.215 0.205-9.355 0.589-15.421 0.151-2.010 0.636-3.038 1.425-3.038 0.796 0 1.172 0.671 1.172 1.993 0 1.637 0.351 3.627 1.055 6.028 2.344 7.876 7.949 11.843 16.813 11.843 4.945 0 8.9-1.45 11.879-4.343 2.6-2.623 3.874-5.595 3.874-9.050 0-6.533-3.84-12.783-11.5-18.852l-5.428-4.19c-11.6-9.116-17.382-18.405-17.382-27.875 0-6.526 2.464-11.816 7.515-15.981 4.987-4.139 11.554-6.244 19.611-6.244 5.187 0 10.403 0.657 15.628 2.031 1.109 0.3 1.632 0.754 1.632 1.389 0-0.167-0.059 1.227-0.211 4.149-0.168 2.959-0.236 6.276-0.236 9.945 0 2.375-0.434 3.554-1.287 3.554-0.78 0-1.157-0.719-1.157-2.102 0-2.641-1.021-5.203-3.101-7.767-3.034-3.873-7.292-5.784-12.789-5.784-4.344 0-7.712 1.141-10.226 3.351-2.523 2.256-3.769 5.145-3.769 8.748 0 2.787 0.889 5.368 2.655 7.812 1.785 2.482 5.041 5.498 9.814 9.161l3.293 2.456c7.030 5.338 12.047 10.226 14.924 14.747 2.883 4.492 4.369 9.59 4.369 15.213 0 8.873-3.699 15.689-11.056 20.448-4.927 3.23-11.172 4.839-18.685 4.839z"></path>
<path fill="#000" d="M1414.188 215.494v-48.224l-17.514 0.497c-6.199 0.161-9.992 1.296-11.399 3.427-1.036 1.477-1.684 2.849-1.993 4.091-0.242 0.971-0.686 1.442-1.293 1.442-0.708 0-1.057-0.62-1.057-1.911 0-2.111 0.82-6.587 2.448-13.475 0.392-1.544 0.859-2.299 1.406-2.299 0.228 0 0.907 0.251 1.892 0.66 1.028 0.428 2.080 0.704 3.168 0.763 4.256 0.428 8.149 0.636 11.749 0.636h46.561c1.364 0 3.234-0.208 5.752-0.636 2.53-0.422 4.364-0.619 5.511-0.619 0.648 0 0.948 0.836 0.948 2.478 0 0.786-0.059 2.969-0.144 6.609-0.134 3.625-0.245 5.998-0.309 7.171-0.083 1.205-0.411 1.791-0.947 1.791-0.696 0-1.124-0.767-1.275-2.377l-0.127-1.293c-0.376-4.123-5.016-6.333-13.852-6.553l-14.832-0.404v48.224c0 13.292 0.203 21.679 0.572 25.132 0.482 3.832 1.99 5.932 4.617 6.362 2.255 0.313 4.251 0.468 5.994 0.468 1.257 0 1.883 0.3 1.883 0.955 0 0.746-0.744 1.141-2.252 1.141-2.984 0-6.62-0.059-10.947-0.169-4.308-0.083-6.788-0.132-7.507-0.132-0.724 0-2.915 0.051-6.657 0.132-3.688 0.111-6.473 0.169-8.178 0.169-1.553 0-2.323-0.393-2.323-1.141 0-0.567 0.848-0.921 2.565-1.087 1.168-0.151 2.355-0.268 3.546-0.337 1.791-0.428 2.933-2.582 3.403-6.486 0.39-3.452 0.588-11.799 0.588-25.007z"></path>
<path fill="#000" d="M1594.007 247.396c-1.878 0-3.503-0.159-4.945-0.442-3.58-0.844-7.049-5.081-10.318-12.86-12.227-30-21.966-54.080-29.171-72.257-1.108-2.514-2.075-3.752-2.952-3.752-0.907 0-2.008 1.559-3.265 4.7l-29.524 73.791c-1.319 3.381-2.616 5.782-3.881 7.3-1.548 1.845-3.588 2.959-6.084 3.292-1.223 0.151-9.603 0.066-11.884-0.214-2.806-0.456-4.396-2.341-4.707-5.785-0.301-3.167-0.46-11.722-0.46-25.728v-20.676c0-14.010 0.089-22.316 0.229-24.884 0.226-4.005 1.719-6.235 4.353-6.721 1.324-0.236 2.58-0.324 3.713-0.324s1.697-0.397 1.697-1.175c0-0.648-0.837-0.95-2.476-0.95-1.633 0-4.215 0.052-7.745 0.161-3.528 0.092-5.698 0.14-6.572 0.14-1.049 0-3.451-0.047-7.233-0.14-3.813-0.108-6.486-0.161-8.044-0.161-1.902 0-2.842 0.3-2.842 0.95 0 0.778 0.685 1.175 2.060 1.175 1.349 0 2.749 0.151 4.043 0.484 2.438 0.601 3.788 2.779 4.005 6.56 0.151 2.568 0.243 10.873 0.243 24.884v20.676c0 13.627-0.211 22.161-0.562 25.669-0.437 3.462-1.551 5.388-3.45 5.844-1.153 0.065-2.332 0.163-3.495 0.315-1.755 0.185-2.623 0.52-2.623 1.047 0 0.799 0.797 1.175 2.355 1.175 1.752 0 4.457-0.059 8.197-0.161 3.73-0.083 5.922-0.151 6.636-0.151 0.711 0 3.193 0.069 7.444 0.151 4.284 0.103 7.888 0.161 10.888 0.161h3.399c2.448 0 7.065-0.111 13.884-0.311 1.14 0 3.22 0.069 6.168 0.151 2.941 0.103 5.004 0.161 6.277 0.161 1.332 0 2.019-0.352 2.019-1.149 0-0.612-0.588-0.889-1.759-0.889h-1.791c-3.117 0-4.676-1.257-4.676-3.686 0-1.64 0.562-4.023 1.745-7.159l6.366-16.811c0.219-0.62 0.588-0.921 1.049-0.921h26.208c0.551 0 0.927 0.277 1.175 0.804l9.419 24.87c0.538 1.417 0.184 2.332-1.039 2.716-1.142 0.103-1.684 0.436-1.684 1.047 0 0.564 1.172 0.861 3.548 0.948 5.072 0.14 12.473 0.226 22.205 0.226 2.043 0 3.461-0.083 4.205-0.226 0.804-0.153 1.188-0.468 1.188-0.948 0-0.612-0.501-0.923-1.525-0.923zM1554.274 212.961h-21.621c-0.46 0-0.645-0.251-0.46-0.82l10.812-28.922c0.151-0.702 0.389-1.047 0.716-1.047 0.224 0 0.421 0.345 0.589 1.047l10.561 29.049c0.146 0.457-0.056 0.691-0.597 0.691z"></path>
</svg>
