<svg width="189" height="40" viewBox="0 0 189 40" fill="none" xmlns="http://www.w3.org/2000/svg">
<path d="M17.3237 10L25.9871 5L17.3237 0V10Z" fill="#561B4E"/>
<path d="M0 20L8.66334 15L0 10V20Z" fill="#6D0C2A"/>
<path d="M0 30L8.66334 25L0 20V30Z" fill="#6D0C2A"/>
<path d="M8.66357 25L17.3241 20L8.66357 15V25Z" fill="#CA3327"/>
<path d="M8.66357 35L17.3241 30L8.66357 25V35Z" fill="#6D0C2A"/>
<path d="M17.3241 0L8.66357 5L17.3241 10V0Z" fill="#CC9999"/>
<path d="M17.3241 20L8.66357 25L17.3241 30V20Z" fill="#F1563C"/>
<path d="M17.3237 20L25.9871 15L17.3237 10V20Z" fill="#561B4E"/>
<path d="M25.9874 25L34.648 20L25.9874 15V25Z" fill="#B21F30"/>
<path d="M25.9874 35L34.648 30L25.9874 25V35Z" fill="#B21F30"/>
<path d="M17.3268 30L25.9873 25L17.3268 20V30Z" fill="#CA3327"/>
<path d="M17.3237 40L25.9871 35L17.3237 30V40Z" fill="#6D0C2A"/>
<path d="M17.3241 10L8.66357 15L17.3241 20V10Z" fill="#F1563C"/>
<path d="M17.3241 30L8.66357 35L17.3241 40V30Z" fill="#B21F30"/>
<path d="M8.66357 15L17.3241 10L8.66357 5V15Z" fill="#CA3327"/>
<path d="M8.66334 5L0 10L8.66334 15V5Z" fill="#993366"/>
<path d="M8.66334 15L0 20L8.66334 25V15Z" fill="#993366"/>
<path d="M8.66334 25L0 30L8.66334 35V25Z" fill="#993366"/>
<path d="M25.9874 15L34.648 10L25.9874 5V15Z" fill="#561B4E"/>
<path d="M25.9873 5L17.3268 10L25.9873 15V5Z" fill="#CC9999"/>
<path d="M34.648 10L25.9874 15L34.648 20V10Z" fill="#CC9999"/>
<path d="M34.648 20L25.9874 25L34.648 30V20Z" fill="#F1563C"/>
<path d="M25.9873 25L17.3268 30L25.9873 35V25Z" fill="#CC9999"/>
<path d="M25.9871 15L17.3237 20L25.9871 25V15Z" fill="#F1563C"/>
<path d="M48.2975 25.0527V14.9834H50.638V23.1587H58.1893V25.0527H48.2975Z" fill="#35182E"/>
<path d="M60.7101 25.0527V14.9834H69.9419V16.7H63.0506V18.9435H70.2414V20.6628H63.0506V23.1587H71.1094V25.0527H60.7101Z" fill="#35182E"/>
<path d="M104.786 25.0527V14.9834H114.018V16.7H107.13V18.9435H114.318V20.6628H107.13V23.1587H115.172V25.0527H104.786Z" fill="#35182E"/>
<path d="M89.0986 25.0527V14.9834H95.5795C97.4375 14.9834 98.862 15.4188 99.8529 16.2896C100.844 17.1603 101.338 18.3833 101.337 19.9584C101.348 20.9119 101.112 21.852 100.652 22.6872C100.189 23.5198 99.4607 24.1731 98.5828 24.5425C97.7786 24.878 96.5751 25.0499 94.9777 25.0499H89.0986V25.0527ZM91.4392 23.1587H94.4647C96.0149 23.1587 97.1269 22.934 97.7925 22.4765C98.532 21.9828 98.9017 21.1306 98.9017 19.9196C98.9017 17.8268 97.7925 16.7795 95.574 16.7776H91.442V23.1559L91.4392 23.1587Z" fill="#35182E"/>
<path d="M135.325 25.0527V14.9834H137.665V18.8908H144.983V14.9834H147.343V25.0527H144.983V20.7183H137.665V25.0527H135.325Z" fill="#35182E"/>
<path d="M165.851 25.0527V14.9834H168.192V23.1587H175.746V25.0527H165.851Z" fill="#35182E"/>
<path d="M178.536 25.0527V14.9834H180.879V23.1587H188.43V25.0527H178.536Z" fill="#35182E"/>
<path d="M128.774 14.989V17.9535C128.756 18.8595 128.787 19.7659 128.869 20.6684L121.115 16.0012V14.989H119.007V25.0556H121.115V20.0916C121.115 19.3484 121.026 18.3944 121.026 18.3944L128.766 23.0728V25.0556H130.876V14.989H128.774Z" fill="#35182E"/>
<path d="M81.5446 14.9668H78.1863L73.1392 25.0361H75.4797L76.65 22.8176H83.0671L84.2401 25.0361H86.5806L81.5446 14.9668ZM77.2684 21.015L79.2401 16.9163H80.4908L82.4625 21.015H77.2684Z" fill="#35182E"/>
<path d="M158.12 14.9668H154.761L149.723 25.0361H152.063L153.233 22.8176H159.642L160.815 25.0361H163.156L158.12 14.9668ZM153.838 21.015L155.81 16.9163H157.06L159.032 21.015H153.838Z" fill="#35182E"/>
</svg>
