<?xml version="1.0" encoding="UTF-8" standalone="no"?>
<svg
   xmlns:dc="http://purl.org/dc/elements/1.1/"
   xmlns:cc="http://creativecommons.org/ns#"
   xmlns:rdf="http://www.w3.org/1999/02/22-rdf-syntax-ns#"
   xmlns:svg="http://www.w3.org/2000/svg"
   xmlns="http://www.w3.org/2000/svg"
   id="svg8"
   version="1.1"
   viewBox="0 0 210.6337 70.721397"
   height="70.721397mm"
   width="210.6337mm">
  <defs
     id="defs2">
    <clipPath
       clipPathUnits="userSpaceOnUse"
       id="clipPath935">
      <path
         d="M 0,538.6 H 1073.6 V 0 H 0 Z"
         id="path933" />
    </clipPath>
  </defs>
  <metadata
     id="metadata5">
    <rdf:RDF>
      <cc:Work
         rdf:about="">
        <dc:format>image/svg+xml</dc:format>
        <dc:type
           rdf:resource="http://purl.org/dc/dcmitype/StillImage" />
        <dc:title></dc:title>
      </cc:Work>
    </rdf:RDF>
  </metadata>
  <g
     transform="translate(-0.51648664,-112.80597)"
     id="layer1">
    <g
       id="g931"
       clip-path="url(#clipPath935)"
       transform="matrix(0.35277777,0,0,-0.35277777,-71.107984,244.791)">
      <g
         id="g937"
         transform="translate(609.0793,242.4973)">
        <path
           d="m 0,0 c -7.262,2.962 -12.995,7.03 -17.207,12.202 -4.209,5.17 -6.562,11.009 -7.047,17.519 H 9.734 c 0.489,-3.139 2.808,-5.578 5.37,-7.322 2.562,-1.744 5.734,-2.616 9.518,-2.616 2.931,0 5.246,0.581 6.957,1.745 1.708,1.159 2.565,2.672 2.565,4.531 0,2.442 -1.406,4.24 -4.212,5.404 -2.809,1.16 -7.445,2.44 -13.913,3.834 -7.323,1.396 -13.425,2.965 -18.305,4.707 -4.883,1.743 -9.126,4.589 -12.725,8.541 -3.599,3.95 -5.4,9.296 -5.4,16.039 0,5.809 1.647,11.069 4.944,15.773 3.294,4.708 8.145,8.455 14.552,11.244 6.407,2.79 14.125,4.184 23.158,4.184 13.423,0 23.981,-3.137 31.67,-9.412 7.689,-6.276 14.068,-14.84 15.291,-25.066 l -34.329,0.312 c -0.612,3.139 -2.047,5.548 -4.302,7.235 -2.261,1.683 -5.279,2.528 -9.061,2.528 -2.931,0 -5.158,-0.523 -6.684,-1.57 -1.527,-1.046 -2.286,-2.5 -2.286,-4.357 0,-2.326 1.4,-4.096 4.209,-5.316 2.806,-1.222 7.322,-2.472 13.547,-3.75 7.442,-1.51 13.638,-3.197 18.581,-5.054 4.943,-1.86 9.274,-4.853 12.998,-8.977 3.721,-4.127 5.583,-9.735 5.583,-16.822 0,-5.694 -1.74,-10.806 -5.217,-15.339 C 58.764,5.664 53.822,2.091 47.415,-0.523 41.007,-3.137 33.47,-4.445 24.806,-4.445 15.531,-4.445 7.262,-2.963 0,0"
           style="fill:#000000;fill-opacity:1;fill-rule:nonzero;stroke:none"
           id="path939" />
      </g>
      <g
         id="g941"
         transform="translate(441.3195,330.466)">
        <path
           d="m 0,0 c 5.462,3.205 11.332,4.81 17.607,4.81 v -35.9 H 8.019 c -7.438,0 -12.958,-1.433 -16.56,-4.295 -3.604,-2.865 -5.404,-7.844 -5.404,-14.945 V -92.414 H -48.111 V 3.952 h 34.166 V -13.055 C -10.109,-7.558 -5.462,-3.208 0,0"
           style="fill:#000000;fill-opacity:1;fill-rule:nonzero;stroke:none"
           id="path943" />
      </g>
      <g
         id="g945"
         transform="translate(534.8591,301.6691)">
        <path
           d="m 0,0 c -3.43,3.548 -7.642,5.324 -12.637,5.324 -5.114,0 -9.357,-1.746 -12.726,-5.237 -3.371,-3.495 -5.053,-8.389 -5.053,-14.684 0,-6.182 1.682,-11.075 5.053,-14.683 3.369,-3.605 7.612,-5.408 12.726,-5.408 4.995,0 9.207,1.773 12.637,5.324 3.427,3.548 5.144,8.471 5.144,14.767 C 5.144,-8.414 3.427,-3.55 0,0 m -59.789,11.506 c 3.66,7.439 8.655,13.163 14.991,17.171 6.334,4.006 13.392,6.011 21.18,6.011 6.738,0 12.549,-1.318 17.431,-3.951 4.881,-2.634 8.654,-6.179 11.331,-10.645 V 33.486 H 39.307 V -62.851 H 5.144 v 13.395 c -2.677,-4.466 -6.48,-8.016 -11.42,-10.648 -4.939,-2.635 -10.72,-3.949 -17.342,-3.949 -7.788,0 -14.846,2.001 -21.18,6.011 -6.336,4.006 -11.331,9.758 -14.991,17.258 -3.662,7.496 -5.49,16.228 -5.49,26.187 0,9.959 1.828,18.659 5.49,26.103"
           style="fill:#000000;fill-opacity:1;fill-rule:nonzero;stroke:none"
           id="path947" />
      </g>
      <g
         id="g949"
         transform="translate(753.2668,267.5529)">
        <path
           d="m 0,0 v -28.744 h -14.819 c -24.987,0 -37.477,12.222 -37.477,36.661 V 39.76 h -12.028 v 28.055 h 12.028 l -0.059,26.76 h 34.339 l 0.06,-26.76 H -0.175 V 39.76 H -17.956 V 7.4 c 0,-2.64 0.611,-4.533 1.831,-5.68 C -14.905,0.573 -12.844,0 -9.938,0 Z"
           style="fill:#000000;fill-opacity:1;fill-rule:nonzero;stroke:none"
           id="path951" />
      </g>
      <path
         d="m 798.091,238.809 h -34.166 v 96.506 h 34.166 z"
         style="fill:#000000;fill-opacity:1;fill-rule:nonzero;stroke:none"
         id="path953" />
      <g
         id="g955"
         transform="translate(330.4621,180.2717)">
        <path
           d="m 0,0 c 0,-1.025 -0.215,-1.942 -0.646,-2.753 -0.43,-0.809 -1.01,-1.5 -1.744,-2.071 -0.732,-0.573 -1.591,-1.014 -2.58,-1.323 -0.987,-0.309 -2.051,-0.464 -3.19,-0.464 -1.116,0 -2.26,0.12 -3.434,0.357 -1.174,0.238 -2.25,0.595 -3.226,1.071 l 0.629,2.61 c 0.859,-0.406 1.806,-0.739 2.841,-1.001 1.035,-0.262 2.074,-0.393 3.121,-0.393 1.51,0 2.731,0.326 3.661,0.984 0.929,0.653 1.394,1.599 1.394,2.839 0,0.691 -0.133,1.282 -0.4,1.769 -0.267,0.489 -0.634,0.929 -1.099,1.324 -0.465,0.391 -1.006,0.744 -1.621,1.053 -0.617,0.31 -1.273,0.631 -1.971,0.966 -0.789,0.381 -1.551,0.779 -2.283,1.197 -0.733,0.416 -1.378,0.893 -1.935,1.429 -0.559,0.536 -1.006,1.144 -1.344,1.822 -0.337,0.68 -0.505,1.471 -0.505,2.377 0,1.023 0.181,1.931 0.54,2.717 0.36,0.786 0.867,1.441 1.519,1.965 0.649,0.524 1.428,0.917 2.335,1.179 0.907,0.262 1.906,0.393 3,0.393 1.114,0 2.2,-0.131 3.259,-0.393 1.057,-0.262 1.981,-0.608 2.772,-1.036 L -1.5,14.008 c -0.745,0.405 -1.592,0.739 -2.546,1.001 -0.952,0.262 -1.918,0.393 -2.892,0.393 -2.815,0 -4.221,-1.12 -4.221,-3.359 0,-0.5 0.07,-0.935 0.21,-1.305 0.139,-0.369 0.366,-0.715 0.679,-1.036 C -9.956,9.381 -9.536,9.07 -9.014,8.772 -8.492,8.476 -7.857,8.136 -7.113,7.755 -6.369,7.374 -5.58,6.963 -4.743,6.521 -3.906,6.081 -3.139,5.557 -2.44,4.949 -1.744,4.341 -1.164,3.634 -0.697,2.823 -0.232,2.013 0,1.072 0,0"
           style="fill:#000000;fill-opacity:1;fill-rule:nonzero;stroke:none"
           id="path957" />
      </g>
      <path
         d="m 368.294,174.088 h -3.208 v 23.803 h 3.208 z"
         style="fill:#000000;fill-opacity:1;fill-rule:nonzero;stroke:none"
         id="path959" />
      <g
         id="g961"
         transform="translate(424.3259,197.8908)">
        <path
           d="M 0,0 H 2.895 L 4.568,-23.803 H 1.5 L 0.384,-5.255 -6.31,-19.513 h -3.279 l -6.694,14.258 -1.116,-18.548 h -3.069 L -18.793,0 h 2.893 l 7.95,-16.833 z"
           style="fill:#000000;fill-opacity:1;fill-rule:nonzero;stroke:none"
           id="path963" />
      </g>
      <g
         id="g965"
         transform="translate(475.5837,190.9572)">
        <path
           d="M 0,0 C 0,0.786 -0.152,1.446 -0.453,1.982 -0.755,2.52 -1.168,2.959 -1.691,3.306 -2.213,3.649 -2.83,3.9 -3.539,4.057 -4.249,4.21 -4.998,4.289 -5.787,4.289 H -8.09 v -9.113 h 1.709 c 0.929,0 1.783,0.106 2.562,0.321 0.779,0.215 1.454,0.529 2.023,0.946 0.57,0.418 1.012,0.924 1.326,1.519 C -0.157,-1.442 0,-0.764 0,0 M 3.209,-0.036 C 3.209,-1.179 2.964,-2.21 2.475,-3.129 1.988,-4.044 1.309,-4.824 0.437,-5.47 -0.435,-6.112 -1.464,-6.606 -2.65,-6.95 -3.836,-7.297 -5.115,-7.47 -6.486,-7.47 H -8.09 v -9.399 h -3.207 V 6.934 h 5.614 c 1.255,0 2.423,-0.144 3.505,-0.43 C -1.099,6.217 -0.157,5.782 0.645,5.199 1.446,4.615 2.075,3.889 2.528,3.019 2.982,2.148 3.209,1.13 3.209,-0.036"
           style="fill:#000000;fill-opacity:1;fill-rule:nonzero;stroke:none"
           id="path967" />
      </g>
      <g
         id="g969"
         transform="translate(515.5764,197.8908)">
        <path
           d="m 0,0 v -21.121 h 9.693 v -2.682 H -3.208 V 0 Z"
           style="fill:#000000;fill-opacity:1;fill-rule:nonzero;stroke:none"
           id="path971" />
      </g>
      <g
         id="g973"
         transform="translate(569.0295,197.8908)">
        <path
           d="m 0,0 h 3.417 l -7.635,-14.403 v -9.4 h -3.209 v 9.4 L -15.063,0 h 3.417 l 5.823,-11.365 z"
           style="fill:#000000;fill-opacity:1;fill-rule:nonzero;stroke:none"
           id="path975" />
      </g>
      <g
         id="g977"
         transform="translate(643.6486,174.0881)">
        <path
           d="M 0,0 V 23.803 H 13.075 V 21.121 H 3.207 v -8.147 h 9.45 V 10.292 H 3.207 V 0 Z"
           style="fill:#000000;fill-opacity:1;fill-rule:nonzero;stroke:none"
           id="path979" />
      </g>
      <g
         id="g981"
         transform="translate(693.8947,182.4865)">
        <path
           d="M 0,0 H 8.927 L 4.464,12.401 Z M 15.273,-8.398 H 11.994 L 9.868,-2.645 H -0.977 l -2.091,-5.753 h -3.278 l 9.24,23.802 h 3.138 z"
           style="fill:#000000;fill-opacity:1;fill-rule:nonzero;stroke:none"
           id="path983" />
      </g>
      <path
         d="m 746.685,174.088 h -3.207 v 23.803 h 3.207 z"
         style="fill:#000000;fill-opacity:1;fill-rule:nonzero;stroke:none"
         id="path985" />
      <g
         id="g987"
         transform="translate(794.5939,191.0988)">
        <path
           d="M 0,0 C 0,0.739 -0.157,1.377 -0.472,1.913 -0.786,2.449 -1.208,2.877 -1.743,3.2 -2.279,3.521 -2.895,3.759 -3.591,3.915 -4.29,4.068 -5.021,4.147 -5.789,4.147 h -2.789 v -8.97 h 1.603 c 0.977,0 1.888,0.094 2.738,0.285 0.848,0.19 1.588,0.481 2.215,0.877 0.626,0.39 1.121,0.892 1.481,1.5 C -0.182,-1.555 0,-0.833 0,0 m -8.578,-17.011 h -3.207 V 6.792 h 6.031 c 1.256,0 2.423,-0.144 3.504,-0.43 C -1.168,6.075 -0.222,5.653 0.593,5.094 1.406,4.533 2.044,3.831 2.511,2.985 2.976,2.138 3.208,1.167 3.208,0.073 3.208,-1.572 2.69,-3.001 1.656,-4.217 0.62,-5.431 -0.826,-6.313 -2.685,-6.861 l 8.193,-10.15 H 1.569 l -7.567,9.578 c -0.115,0 -0.29,-0.005 -0.523,-0.017 -0.232,-0.013 -0.476,-0.018 -0.732,-0.018 h -0.749 -0.576 z"
           style="fill:#000000;fill-opacity:1;fill-rule:nonzero;stroke:none"
           id="path989" />
      </g>
      <g
         id="g991"
         transform="translate(317.1994,361.7267)">
        <path
           d="m 0,0 c 19.617,-13.165 32.531,-35.545 32.531,-60.946 0,-26.063 -13.606,-48.935 -34.089,-61.945 h 34.136 v 95.7 H 65.35 V 0 Z"
           style="fill:#000000;fill-opacity:1;fill-rule:nonzero;stroke:none"
           id="path993" />
      </g>
      <g
         id="g995"
         transform="translate(315.612,334.5358)">
        <path
           d="m 0,0 h -32.423 v 27.191 h 34.01 c -11.67,7.831 -25.709,12.404 -40.818,12.404 -40.511,0 -73.351,-32.84 -73.351,-73.35 0,-40.51 32.84,-73.35 73.351,-73.35 14.447,0 27.906,4.194 39.261,11.405 H 0 Z"
           style="fill:#f20000;fill-opacity:1;fill-rule:nonzero;stroke:none"
           id="path997" />
      </g>
      <g
         id="g999"
         transform="translate(349.7302,300.7809)">
        <path
           d="M 0,0 C 0,25.4 -12.914,47.781 -32.531,60.946 H -66.542 V 33.755 h 32.424 v -95.7 h 0.03 C -13.605,-48.935 0,-26.063 0,0"
           style="fill:#ffffff;fill-opacity:1;fill-rule:nonzero;stroke:none"
           id="path1001" />
      </g>
    </g>
  </g>
</svg>
